# xmcd
#
# Track frame offsets: 
#        150
#        21717
#        35645
#        59475
#        79860
#        100537
#        129922
#        150895
#        166152
#        191617
#        214257
#        229072
#
# Disc length: 3202 seconds
#
# Revision: 3
# Processed by: cddbd v1.5.2PL0 Copyright (c) Steve Scherf et al.
# Submitted via: ExactAudioCopy v1.0b4
#
DISCID=970c800c
DTITLE=Sam Carr's Delta Jukes - Working For The Blues
DYEAR=2001
DGENRE=Blues
TTITLE0=I'm Overdue (Hoegger)
TTITLE1=Shopping For My Baby (Weston)
TTITLE2=Play The Game (Riley)
TTITLE3=Just Once More (Weston)
TTITLE4=This Misery (Riley)
TTITLE5=To Love Is Blues (Weston)
TTITLE6=Voodoo Woman, Voodoo Man (Riley)
TTITLE7=A Trade Was Made (Weston)
TTITLE8=Come Here Baby (Reed)
TTITLE9=Carr Hop (Carr)
TTITLE10=Working For The Blues (Weston)
TTITLE11=Hoover Den (Riley)
EXTD=
EXTT0=
EXTT1=
EXTT2=
EXTT3=
EXTT4=
EXTT5=
EXTT6=
EXTT7=
EXTT8=
EXTT9=
EXTT10=
EXTT11=
PLAYORDER=
